<svg width="995" height="852" viewBox="0 0 995 852" fill="none" xmlns="http://www.w3.org/2000/svg">
<g id="coding-room">
<path id="Vector" d="M48.1556 479.814L1023.1 490.352" stroke="#9397AA"/>
<path id="Vector_2" d="M529.218 847.611C731.902 849.058 896.69 782.851 897.283 699.734C897.876 616.617 734.05 548.065 531.366 546.619C328.683 545.173 163.895 611.379 163.302 694.496C162.709 777.613 326.535 846.165 529.218 847.611Z" fill="#3F3D56" fill-opacity="0.45"/>
<path id="Vector_3" d="M296.451 439.085L293.451 439.063C291.242 439.048 289.438 440.826 289.422 443.035L287.774 674.029C287.758 676.238 289.536 678.042 291.745 678.057L294.745 678.079C296.954 678.094 298.758 676.316 298.774 674.107L300.422 443.113C300.438 440.904 298.66 439.101 296.451 439.085Z" fill="#C4C4C4"/>
<path id="Vector_4" d="M591.387 659.195L298.395 657.104C295.357 657.082 292.878 659.527 292.856 662.565C292.834 665.602 295.279 668.082 298.316 668.104L591.309 670.195C594.346 670.216 596.826 667.772 596.848 664.734C596.87 661.697 594.425 659.217 591.387 659.195Z" fill="#C4C4C4"/>
<path id="Vector_5" d="M624.5 433.426L282.508 430.985C279.747 430.965 277.492 433.188 277.473 435.949L277.43 441.949C277.41 444.71 279.633 446.965 282.394 446.985L624.385 449.425C627.147 449.445 629.401 447.222 629.421 444.461L629.464 438.461C629.483 435.7 627.261 433.445 624.5 433.426Z" fill="#C4C4C4"/>
<path id="Vector_6" d="M383.449 439.706L380.449 439.684C378.24 439.668 376.436 441.446 376.42 443.656L375.193 615.651C375.177 617.86 376.955 619.664 379.164 619.68L382.164 619.701C384.373 619.717 386.177 617.939 386.192 615.73L387.42 443.734C387.436 441.525 385.658 439.721 383.449 439.706Z" fill="#C4C4C4"/>
<path id="Vector_7" d="M289.829 557.898L384.04 524.368L386.384 530.954L292.174 564.485L289.829 557.898Z" fill="#C4C4C4"/>
<path id="Vector_8" d="M618.443 441.383L615.443 441.361C613.234 441.345 611.43 443.124 611.414 445.333L610.187 617.328C610.171 619.537 611.949 621.341 614.158 621.357L617.158 621.378C619.367 621.394 621.171 619.616 621.186 617.407L622.414 445.411C622.43 443.202 620.652 441.398 618.443 441.383Z" fill="#C4C4C4"/>
<path id="Vector_9" d="M613.301 601.35L380.307 599.687L380.228 610.687L613.222 612.35L613.301 601.35Z" fill="#C4C4C4"/>
<path id="Vector_10" d="M461.828 360.558C460.958 357.956 462.906 355.27 465.65 355.29L548.081 355.878C549.844 355.891 551.392 357.057 551.89 358.75L571.498 425.391C572.255 427.965 570.315 430.539 567.633 430.52L487.88 429.951C486.17 429.938 484.657 428.841 484.114 427.219L461.828 360.558Z" fill="#615D5D"/>
<path id="Vector_11" d="M467.447 361.62C467.236 360.971 467.722 360.305 468.405 360.31L547.245 360.873C547.688 360.876 548.077 361.17 548.199 361.597L567.161 427.734C567.345 428.376 566.861 429.014 566.193 429.009L489.943 428.465C489.513 428.462 489.133 428.185 489 427.776L467.447 361.62Z" fill="#EAEAEA"/>
<path id="Vector_12" d="M608.564 424.312L487.567 423.448C485.91 423.436 484.558 424.77 484.546 426.427L484.524 429.427C484.513 431.083 485.846 432.436 487.503 432.448L608.5 433.311C610.157 433.323 611.509 431.99 611.521 430.333L611.543 427.333C611.554 425.676 610.221 424.324 608.564 424.312Z" fill="black"/>
<path id="Vector_13" d="M376.637 413.335C376.595 419.145 367.602 423.79 356.548 423.711C345.495 423.632 369.87 418.923 369.405 413.284C368.941 407.645 345.645 402.595 356.698 402.674C367.752 402.753 376.678 407.527 376.637 413.335Z" fill="#F1ECDF"/>
<path id="Vector_14" d="M339.579 421.235C339.595 419.026 341.399 417.248 343.608 417.264L352.866 417.33L362.126 417.396C364.335 417.412 366.113 419.215 366.098 421.424L366.054 427.581C366.038 429.79 364.234 431.568 362.025 431.553L343.507 431.42C341.298 431.405 339.52 429.601 339.535 427.392L339.579 421.235Z" fill="#F1ECDF"/>
<path id="Vector_15" d="M339.682 406.882C339.729 400.256 345.14 394.921 351.767 394.968L354.286 394.986C360.913 395.034 366.247 400.445 366.2 407.072L366.12 418.31C366.072 424.937 360.661 430.272 354.034 430.224L351.515 430.207C344.889 430.159 339.554 424.748 339.601 418.121L339.682 406.882Z" fill="#F1ECDF"/>
<path id="Vector_16" d="M365.798 401.403C365.772 405.106 359.133 407.315 352.054 407.265C344.976 407.214 339.696 404.919 339.722 401.217C339.749 397.513 345.075 393.431 352.153 393.481C359.231 393.532 365.825 397.699 365.798 401.403Z" fill="#615D5D"/>
<g id="coffee-steam2">
<path id="Vector_17" d="M357.771 360.572C371.009 371.542 355.646 383.628 349.832 386.916C344.019 390.204 363.355 375.019 353.92 361.407C340.682 350.436 357.427 342.372 363.24 339.085C369.054 335.796 344.533 349.602 357.771 360.572Z" fill="#C4C4C4"/>
</g>
<g id="coffee-steam3">
<path id="Vector_18" d="M372.822 353.379C386.083 361.241 370.745 369.843 364.938 372.18C359.131 374.516 378.436 363.71 368.973 353.967C355.713 346.104 372.441 340.379 378.248 338.042C384.055 335.705 359.562 345.516 372.822 353.379Z" fill="#C4C4C4"/>
</g>
<g id="coffee-steam1">
<g id="Group 4">
<path id="Vector_19" d="M343.306 353.168C356.383 361.029 341.255 369.633 335.528 371.97C329.801 374.307 348.841 363.499 339.509 353.757C326.432 345.895 342.931 340.168 348.659 337.831C354.386 335.494 330.229 345.306 343.306 353.168Z" fill="#C4C4C4"/>
</g>
</g>
<path id="Vector_20" d="M147.222 190.282C537.989 243.889 588.232 135.262 780.129 25.5259C691.939 160.236 717.8 204.994 839.583 253.915C577.981 251.182 437.42 278.03 206.675 418.67C295.898 305.96 263.083 260.095 147.222 190.282Z" fill="#C4C4C4" fill-opacity="0.48"/>
<g id="right-monitor">
<path id="Vector_21" d="M297.907 235.09L165.91 234.148C163.701 234.132 161.897 235.91 161.881 238.119L161.289 321.117C161.273 323.326 163.051 325.13 165.261 325.146L297.257 326.088C299.466 326.103 301.27 324.325 301.286 322.116L301.878 239.118C301.894 236.909 300.116 235.106 297.907 235.09Z" fill="#303D51"/>
</g>
<g id="left-line1">
<path id="Vector_22" d="M236.301 249.651L173.303 249.201C171.37 249.187 169.792 250.743 169.778 252.676C169.764 254.609 171.32 256.187 173.253 256.201L236.251 256.651C238.184 256.664 239.762 255.109 239.776 253.176C239.79 251.243 238.234 249.664 236.301 249.651Z" fill="#617D61"/>
</g>
<path id="Vector_23" d="M260.3 249.822L247.301 249.729C245.368 249.715 243.79 251.271 243.776 253.204C243.762 255.137 245.318 256.715 247.251 256.729L260.251 256.822C262.183 256.836 263.762 255.28 263.775 253.347C263.789 251.414 262.233 249.836 260.3 249.822Z" fill="#70EBF3"/>
<g id="left-line2">
<path id="Vector_24" d="M264.2 263.85L181.203 263.258C179.27 263.244 177.691 264.8 177.678 266.733C177.664 268.666 179.22 270.244 181.153 270.258L264.15 270.85C266.083 270.864 267.662 269.308 267.675 267.375C267.689 265.442 266.133 263.864 264.2 263.85Z" fill="#7D6461"/>
</g>
<g id="left-liine3">
<path id="Vector_25" d="M247.101 277.728L194.102 277.35C192.169 277.336 190.591 278.892 190.577 280.825C190.564 282.758 192.119 284.336 194.052 284.35L247.051 284.728C248.984 284.742 250.562 283.186 250.576 281.253C250.59 279.32 249.034 277.742 247.101 277.728Z" fill="#70EBF3"/>
</g>
<g id="left-line4">
<path id="Vector_26" d="M236.001 291.65L173.003 291.2C171.07 291.186 169.492 292.742 169.478 294.675C169.464 296.608 171.02 298.186 172.953 298.2L235.951 298.649C237.884 298.663 239.462 297.107 239.476 295.175C239.49 293.242 237.934 291.663 236.001 291.65Z" fill="#7D6461"/>
</g>
<g id="right-monitor_2">
<path id="Vector_27" d="M620.512 151.39L337.519 149.37C335.31 149.355 333.507 151.133 333.491 153.342L332.285 322.338C332.269 324.547 334.047 326.35 336.256 326.366L619.249 328.386C621.458 328.401 623.262 326.623 623.277 324.414L624.483 155.418C624.499 153.209 622.721 151.406 620.512 151.39Z" fill="#303D51"/>
</g>
<path id="Vector_28" d="M624.455 159.418L333.462 157.342L333.391 167.341L624.384 169.418L624.455 159.418Z" fill="#C4C4C4"/>
<path id="Vector_29" d="M339.912 164.388C341.293 164.398 342.42 163.287 342.43 161.906C342.44 160.525 341.329 159.398 339.948 159.388C338.567 159.378 337.44 160.489 337.43 161.87C337.42 163.251 338.532 164.378 339.912 164.388Z" fill="#EA2121"/>
<path id="Vector_30" d="M347.912 164.445C349.293 164.455 350.42 163.344 350.43 161.963C350.44 160.582 349.328 159.455 347.948 159.445C346.567 159.435 345.44 160.547 345.43 161.927C345.42 163.308 346.531 164.435 347.912 164.445Z" fill="#F1ECDF"/>
<path id="Vector_31" d="M355.912 164.502C357.292 164.512 358.42 163.401 358.43 162.02C358.439 160.639 357.328 159.512 355.947 159.502C354.567 159.492 353.44 160.604 353.43 161.984C353.42 163.365 354.531 164.492 355.912 164.502Z" fill="#7CAD81"/>
<path id="Vector_32" d="M513.443 160.626L433.445 160.055L433.403 166.055L513.401 166.626L513.443 160.626Z" fill="#202020" fill-opacity="0.29"/>
<g id="Group 3">
<path id="Vector_33" d="M357.255 186.512C357.263 185.407 358.164 184.519 359.269 184.527L597.263 186.225C598.368 186.233 599.256 187.134 599.249 188.239L598.25 328.236L356.256 326.509L357.255 186.512Z" fill="white" fill-opacity="0.46"/>
</g>
<g id="right-line1">
<g id="Group 2">
<g id="Group 1">
<path id="Vector_34" d="M513.644 202.629L432.646 202.051C430.161 202.033 428.132 204.033 428.114 206.518C428.096 209.004 430.096 211.033 432.582 211.05L513.58 211.628C516.065 211.646 518.094 209.646 518.112 207.161C518.129 204.675 516.129 202.646 513.644 202.629Z" fill="#EAEAEA"/>
</g>
</g>
</g>
<g id="right-line2">
<path id="Vector_35" d="M570.435 232.035L385.44 230.715C384.059 230.705 382.932 231.816 382.922 233.197C382.912 234.577 384.024 235.705 385.404 235.714L570.4 237.035C571.78 237.044 572.908 235.933 572.917 234.552C572.927 233.172 571.816 232.045 570.435 232.035Z" fill="#EAEAEA"/>
</g>
<g id="right-line3">
<path id="Vector_36" d="M570.328 247.034L385.333 245.714C383.952 245.704 382.825 246.816 382.815 248.196C382.805 249.577 383.917 250.704 385.297 250.714L570.293 252.034C571.673 252.044 572.801 250.933 572.81 249.552C572.82 248.171 571.709 247.044 570.328 247.034Z" fill="#EAEAEA"/>
</g>
<g id="right-line4">
<path id="Vector_37" d="M570.221 262.034L385.226 260.714C383.845 260.704 382.718 261.815 382.708 263.196C382.698 264.577 383.81 265.704 385.19 265.714L570.186 267.034C571.566 267.044 572.693 265.932 572.703 264.552C572.713 263.171 571.602 262.044 570.221 262.034Z" fill="#EAEAEA"/>
</g>
<g id="ball2">
<path id="Vector_38" d="M790.894 238.608L658.897 237.666C656.688 237.65 654.885 239.428 654.869 241.637L654.277 324.635C654.261 326.844 656.039 328.648 658.248 328.664L790.245 329.606C792.454 329.622 794.257 327.844 794.273 325.634L794.865 242.637C794.881 240.427 793.103 238.624 790.894 238.608Z" fill="#303D51"/>
</g>
<path id="Vector_39" d="M698.147 272.947C702.289 272.977 705.67 269.643 705.7 265.501C705.729 261.359 702.396 257.977 698.254 257.948C694.112 257.918 690.73 261.252 690.7 265.394C690.671 269.536 694.005 272.918 698.147 272.947Z" fill="#DCB4E6"/>
<g id="ball3">
<path id="Vector_40" d="M723.982 296.132C728.124 296.162 731.506 292.828 731.535 288.686C731.565 284.544 728.231 281.162 724.089 281.132C719.947 281.103 716.565 284.437 716.536 288.579C716.506 292.721 719.84 296.103 723.982 296.132Z" fill="#70EBF3"/>
</g>
<path id="Vector_41" d="M682.812 319.839C686.954 319.868 690.335 316.535 690.365 312.393C690.394 308.251 687.061 304.869 682.919 304.839C678.777 304.81 675.395 308.144 675.365 312.286C675.336 316.428 678.67 319.809 682.812 319.839Z" fill="#C7E6B4"/>
<path id="Vector_42" d="M781.149 303.303C784.81 301.364 786.206 296.826 784.267 293.165C782.329 289.504 777.79 288.109 774.129 290.047C770.469 291.986 769.073 296.525 771.011 300.185C772.95 303.846 777.489 305.242 781.149 303.303Z" fill="#FBEFD0"/>
<g id="ball1">
<path id="Vector_43" d="M760.252 258.39C764.394 258.42 767.776 255.086 767.805 250.944C767.835 246.802 764.501 243.42 760.359 243.39C756.217 243.361 752.835 246.695 752.806 250.837C752.776 254.979 756.11 258.36 760.252 258.39Z" fill="#D85443"/>
</g>
<g id="right-hand">
<path id="Vector_44" d="M599.614 414.313C599.614 414.313 560.12 417.695 573.197 428.779C586.276 439.864 599.562 421.639 599.562 421.639L599.614 414.313Z" fill="#97646B"/>
</g>
<path id="Vector_45" d="M659.244 354.898L660.232 350.896C660.232 350.896 647.026 376.792 645.913 379.227C644.799 381.661 626.014 402.289 623.795 405.936C622.283 408.3 620.413 410.354 618.269 412.003L597.439 411.854C597.439 411.854 592.941 427.698 599.51 428.967C606.079 430.235 626.874 435.269 631.259 435.3C635.645 435.331 663.254 407.44 663.254 407.44L659.244 354.898Z" fill="#575A89"/>
<path id="Vector_46" d="M662.365 531.999L655.055 634.532L661.633 634.579L670.057 529.612L662.365 531.999Z" fill="#3F3D56"/>
<path id="Vector_47" d="M742.484 520.359L735.174 622.891L741.752 622.938L750.176 517.972L742.484 520.359Z" fill="#3F3D56"/>
<path id="Vector_48" d="M754.457 532.657L747.147 635.189L753.725 635.236L762.149 530.269L754.457 532.657Z" fill="#3F3D56"/>
<path id="Vector_49" d="M652.568 522.16L645.258 624.693L651.836 624.74L660.259 519.772L652.568 522.16Z" fill="#3F3D56"/>
<path id="Vector_50" d="M780.675 392.401L760.974 541.252L650.279 535.577L651.122 521.832L652.76 495.294L738.239 500.789L753.267 392.206L780.675 392.401Z" fill="#3F3D56"/>
<path id="Vector_51" opacity="0.1" d="M780.675 392.401L760.974 541.252L650.279 535.577L651.122 521.832C674.227 522.987 752.369 517.987 752.369 517.987C752.508 498.497 768.423 422.307 774.842 392.36L780.675 392.401Z" fill="black"/>
<path id="Vector_52" d="M585.334 571.752C585.334 571.752 581.845 599.816 575.232 604.653C568.619 609.491 602.562 615.84 602.562 615.84L605.016 579.219L585.334 571.752Z" fill="#97646B"/>
<path id="Vector_53" d="M695.976 584.754C695.976 584.754 701.406 592.12 702.468 597.012C703.529 601.905 719.957 604.465 719.957 604.465L732.121 589.897C732.121 589.897 716.877 575.133 712.492 575.101C708.106 575.07 695.976 584.754 695.976 584.754Z" fill="#97646B"/>
<path id="Vector_54" d="M668.724 332.372C683.255 332.475 695.129 319.438 695.244 303.251C695.36 287.065 683.674 273.859 669.142 273.755C654.61 273.651 642.736 286.689 642.621 302.876C642.505 319.062 654.192 332.268 668.724 332.372Z" fill="#97646B"/>
<path id="Vector_55" d="M661.662 323.162C661.662 323.162 674.619 351.343 672.391 356.212C670.163 361.082 701.062 333.213 701.062 333.213C701.062 333.213 690.237 313.596 690.281 307.49C690.324 301.384 661.662 323.162 661.662 323.162Z" fill="#97646B"/>
<path id="Vector_56" d="M672.694 467.347C672.694 467.347 588.381 452.091 584.847 486.261C581.315 520.43 568.941 564.306 567.819 567.963C566.697 571.619 603.824 592.644 608.262 585.349C612.699 578.053 620.791 519.49 618.633 514.59C616.476 509.689 615.424 503.576 619.8 504.829C624.177 506.081 672.336 517.416 682.23 513.823C692.123 510.23 717.687 461.562 717.687 461.562L672.694 467.347Z" fill="#2F2E41"/>
<path id="Vector_57" opacity="0.1" d="M672.694 467.347C672.694 467.347 588.381 452.091 584.847 486.261C581.315 520.43 568.941 564.306 567.819 567.963C566.697 571.619 603.824 592.644 608.262 585.349C612.699 578.053 620.791 519.49 618.633 514.59C616.476 509.689 615.424 503.576 619.8 504.829C624.177 506.081 672.336 517.416 682.23 513.823C692.123 510.23 717.687 461.562 717.687 461.562L672.694 467.347Z" fill="black"/>
<path id="Vector_58" d="M670.554 460.005L673.625 490.559C673.625 490.559 620.844 512.164 640.325 547.719C659.806 583.274 681.594 602.969 681.594 602.969C681.594 602.969 716.833 581.238 716.877 575.133C716.92 569.027 674.407 534.528 679.889 534.568C685.371 534.607 764.342 530.285 748.245 481.321C732.149 432.356 670.554 460.005 670.554 460.005Z" fill="#2F2E41"/>
<path id="Vector_59" d="M583.993 605.937C583.993 605.937 575.302 594.884 575.285 597.326C575.267 599.769 549.946 614.242 545.553 615.433C541.158 616.623 534.563 619.018 543.307 622.744C552.052 626.471 607.957 628.091 607.974 625.648C607.992 623.206 610.349 600.019 605.947 602.43C601.544 604.841 585.056 610.83 583.993 605.937Z" fill="#2F2E41"/>
<path id="Vector_60" d="M713.422 598.311C713.422 598.311 701.389 594.562 700.266 598.218C699.144 601.874 697.943 616.52 688.041 621.334C678.14 626.148 674.797 633.452 687.945 634.767C701.092 636.082 737.472 608.253 737.507 603.368C737.541 598.484 733.26 583.799 731.06 585.004C728.858 586.209 723.299 597.161 713.422 598.311Z" fill="#2F2E41"/>
<path id="Vector_61" d="M701.114 325.886C701.114 325.886 697.097 313.633 689.778 320.915C682.458 328.196 668.075 346.411 668.075 346.411C668.075 346.411 659.279 350.013 655.945 356.095C652.613 362.177 652.325 402.476 658.808 415.956C665.29 429.437 665.124 452.639 667.273 458.761C669.422 464.882 667.186 470.972 674.86 471.027C682.535 471.082 670.545 461.226 695.691 471.176C720.838 481.125 749.255 493.54 751.508 485.008C753.762 476.475 748.315 471.551 751.63 467.911C754.945 464.271 751.665 463.027 749.534 454.462C747.402 445.898 745.217 444.661 744.2 433.663C743.181 422.664 744.357 411.681 742.199 406.781C740.041 401.88 740.093 394.554 740.18 382.342C740.267 370.13 733.864 345.66 721.857 338.247C709.849 330.833 701.114 325.886 701.114 325.886Z" fill="#575A89"/>
<path id="Vector_62" d="M643.473 270.29C649.632 263.689 656.104 256.876 664.261 254.039C675.147 250.254 687.224 254.394 696.52 261.726C698.525 263.308 700.488 265.097 701.683 267.489C702.778 269.683 703.149 272.223 703.483 274.707C704.663 283.456 705.616 292.319 704.946 301.137C704.277 309.955 701.878 318.806 696.951 325.755C692.663 320.577 689.388 314.464 687.333 307.8C686.79 306.037 686.304 304.179 685.192 302.786C684.081 301.394 682.111 300.635 680.697 301.634C678.731 303.023 678.95 306.77 676.876 307.948C676.167 308.299 675.374 308.387 674.617 308.195C669.24 307.124 667.417 299.762 663.947 295.068C658.831 288.149 651.597 288.533 644.553 286.505C636.379 284.152 638.468 275.655 643.473 270.29Z" fill="#2F2E41"/>
<g id="left-hand">
<path id="Vector_63" d="M637.418 425.167C637.418 425.167 601.157 414.172 598.127 423.385C595.099 432.599 629.024 441.39 629.024 441.39L643.275 441.492L637.418 425.167Z" fill="#97646B"/>
</g>
<path id="Vector_64" d="M714.13 345.519C714.13 345.519 697.589 358.834 693.064 378.342C688.539 397.85 685.102 418.587 685.102 418.587L634.618 425.554C634.618 425.554 630.094 445.061 636.663 446.33C643.232 447.598 692.541 451.614 700.251 446.784C707.96 441.953 734.707 381.082 733.655 374.968C732.602 368.854 730.566 346.857 714.13 345.519Z" fill="#575A89"/>
<path id="Vector_65" d="M599.443 441.247L596.443 441.226C594.234 441.21 592.43 442.988 592.415 445.197L590.766 676.191C590.75 678.4 592.528 680.204 594.738 680.22L597.737 680.241C599.947 680.257 601.75 678.479 601.766 676.27L603.414 445.275C603.43 443.066 601.652 441.263 599.443 441.247Z" fill="#C4C4C4"/>
<g id="dog-tail">
<path id="Vector_66" d="M199.755 565.677C199.536 576.172 190.895 584.41 180.723 584.338L179.307 584.328C178.057 584.314 176.851 584.806 175.947 585.699C175.261 586.352 174.781 587.202 174.568 588.14C174.469 588.519 174.42 588.909 174.419 589.301L174.286 607.828C174.269 611.389 173.259 614.871 171.377 617.858C168.681 622.131 167.085 627.03 167.049 632.126C167.04 633.312 166.802 634.486 166.349 635.576C165.895 636.667 165.236 637.653 164.411 638.48C163.584 639.305 162.606 639.952 161.534 640.383C160.463 640.814 159.318 641.021 158.168 640.992C153.412 640.867 149.712 636.621 149.747 631.71L149.781 627.075L147.421 627.345L147.387 631.986C147.378 633.172 147.14 634.345 146.686 635.436C146.233 636.527 145.573 637.514 144.746 638.339C143.919 639.164 142.941 639.811 141.87 640.243C140.798 640.674 139.654 640.881 138.504 640.852C133.748 640.727 130.05 636.48 130.085 631.569L130.102 629.225C127.734 630.223 114.363 630.127 110.657 629.12L109.65 629.032L109.63 631.717C109.622 632.903 109.384 634.076 108.931 635.167C108.477 636.257 107.818 637.244 106.991 638.07C106.165 638.895 105.187 639.542 104.115 639.973C103.044 640.405 101.9 640.612 100.75 640.582C95.9906 640.457 92.2928 636.211 92.3279 631.3L92.3554 627.447L91.569 627.367L91.5388 631.587C91.5335 632.334 91.4382 633.079 91.257 633.802C90.7562 635.746 89.6353 637.46 88.0751 638.667C86.5151 639.874 84.6067 640.502 82.658 640.453C78.3091 640.341 74.8511 636.784 74.3057 632.423C74.2598 632.009 74.2364 631.593 74.2361 631.177L74.3745 611.783C74.4123 605.123 76.6197 598.666 80.642 593.453C81.3392 592.531 81.7342 591.403 81.7692 590.235C81.804 589.065 81.4772 587.915 80.8363 586.951C76.48 580.265 70.0465 568.987 70.3176 561.025C70.3884 558.722 71.0155 556.704 72.4212 555.148C72.5064 555.052 72.5946 554.956 72.6829 554.866C79.0703 548.06 90.1998 553.531 89.1578 562.939C88.8093 566.09 89.0135 569.281 89.7607 572.358C90.1844 574.097 90.7645 575.79 91.4934 577.419C92.2207 579.053 93.4301 580.409 94.9468 581.293C96.4646 582.177 98.214 582.547 99.9464 582.347C101.124 582.209 102.309 582.144 103.495 582.154L139.857 582.414C141.99 582.425 144.074 581.747 145.815 580.474C147.556 579.203 148.868 577.4 149.567 575.32C149.943 574.229 150.137 573.08 150.14 571.923L150.348 542.738C150.354 541.977 150.507 541.224 150.8 540.525C151.092 539.826 151.518 539.194 152.051 538.668C152.585 538.142 153.216 537.732 153.906 537.462C154.597 537.192 155.332 537.068 156.07 537.099C156.791 537.126 157.498 537.303 158.151 537.619C158.803 537.936 159.387 538.385 159.866 538.941C160.842 540.07 161.377 541.532 161.37 543.045C161.368 543.439 161.44 543.831 161.584 544.198C161.729 544.564 161.941 544.898 162.21 545.179C162.479 545.459 162.8 545.684 163.153 545.837C163.505 545.991 163.885 546.072 164.268 546.073L181.405 546.196C183.856 546.212 186.279 546.731 188.533 547.722C190.786 548.715 192.826 550.159 194.533 551.971C196.24 553.785 197.58 555.93 198.476 558.283C199.371 560.636 199.804 563.149 199.749 565.677L199.755 565.677Z" fill="#685133"/>
</g>
<path id="Vector_67" d="M91.2389 633.802C90.738 635.746 89.6171 637.46 88.0569 638.667C86.4968 639.874 84.5885 640.502 82.6398 640.453C78.2909 640.341 74.8329 636.784 74.2875 632.423C79.5378 630.997 86.8042 630.046 91.2389 633.802Z" fill="#BB823A"/>
<path id="Vector_68" d="M109.329 633.931C108.829 635.876 107.708 637.589 106.149 638.796C104.589 640.003 102.681 640.632 100.732 640.582C96.3835 640.47 92.9098 636.913 92.3799 632.552C97.6303 631.126 104.896 630.175 109.329 633.931Z" fill="#BB823A"/>
<path id="Vector_69" d="M147.085 634.201C146.585 636.145 145.463 637.859 143.904 639.065C142.343 640.272 140.435 640.902 138.486 640.852C134.137 640.74 130.664 637.183 130.137 632.822C135.384 631.395 142.65 630.444 147.085 634.201Z" fill="#BB823A"/>
<path id="Vector_70" d="M166.75 634.341C166.249 636.285 165.128 637.999 163.568 639.206C162.008 640.412 160.099 641.041 158.15 640.992C153.802 640.88 150.328 637.323 149.798 632.962C155.049 631.536 162.315 630.584 166.75 634.341Z" fill="#BB823A"/>
<path id="Vector_71" d="M89.7425 572.367C83.6483 569.791 76.2109 565.107 70.2995 561.035C70.3702 558.73 70.9974 556.714 72.4031 555.157C72.4883 555.06 72.5765 554.965 72.6647 554.876C79.0521 548.069 90.1817 553.54 89.1396 562.947C88.7911 566.099 88.9954 569.29 89.7425 572.367Z" fill="#BB823A"/>
<path id="Vector_72" d="M97.0736 582.174C97.0736 582.174 113.745 604.15 141.445 582.434L97.0736 582.174Z" fill="#BB823A"/>
<path id="Vector_73" d="M150.369 541.916C150.369 541.916 160.497 555.786 150.149 572.748L150.369 541.916Z" fill="#BB823A"/>
<path id="Vector_74" d="M174.42 589.164C174.42 589.164 165.33 600.644 174.151 609.87L174.42 589.164Z" fill="#BB823A"/>
<path id="Vector_75" opacity="0.1" d="M175.221 586.733C174.549 587.377 174.772 588.004 174.562 588.953L145.38 580.84C146.961 579.606 148.922 578.13 149.582 576.154C153.064 578.985 159.96 583.743 175.221 586.733Z" fill="black"/>
<path id="Vector_76" d="M175.947 585.699C175.261 586.352 174.781 587.202 174.568 588.14L146.117 580.269C147.718 579.015 148.924 577.301 149.582 575.341C153.069 578.176 160.682 582.709 175.947 585.699Z" fill="#383F4D"/>
<path id="Vector_77" opacity="0.1" d="M150.642 576.972C150.642 576.972 159.511 583.955 174.441 586.202L150.642 576.972Z" fill="black"/>
<path id="Vector_78" d="M150.648 576.162C150.648 576.162 159.517 583.146 174.447 585.395L150.648 576.162Z" fill="#BB823A"/>
<path id="Vector_79" opacity="0.1" d="M172.934 576.978C172.934 576.978 187.842 581.952 191.885 566.562L172.934 576.978Z" fill="black"/>
<path id="Vector_80" d="M172.939 576.166C172.939 576.166 187.848 581.143 191.891 565.752L172.939 576.166Z" fill="#BB823A"/>
<path id="Vector_81" d="M199.751 566.618C200.62 566.624 201.333 565.357 201.344 563.788C201.356 562.22 200.661 560.943 199.792 560.937C198.924 560.931 198.211 562.198 198.2 563.766C198.188 565.335 198.883 566.612 199.751 566.618Z" fill="#383F4D"/>
<path id="Vector_82" opacity="0.1" d="M80.1923 621.362L83.5227 595.413C83.5227 595.413 73.9712 610.765 80.1923 621.362Z" fill="black"/>
<path id="Vector_83" d="M84.3014 595.419C84.3014 595.419 74.7529 610.771 80.968 621.368L84.3014 595.419Z" fill="#BB823A"/>
<path id="Vector_84" d="M51.0756 0.321518L48.6502 480.316" stroke="#9397AA"/>
<path id="Vector_85" d="M48.608 478.545L1.96693 568.215" stroke="#9397AA"/>
</g>
</svg>
